<svg width="35" height="36" viewBox="0 0 35 36" fill="none" xmlns="http://www.w3.org/2000/svg">
<path fill-rule="evenodd" clip-rule="evenodd" d="M16.9962 1C7.60786 1 0 8.61166 0 18C0 27.3883 7.61166 35 17 35C26.3883 35 34 27.3883 34 18C34 8.61166 26.3845 1 16.9962 1ZM16.9962 3.47521C25.0065 3.47521 31.521 9.98973 31.521 18C31.521 26.0103 25.0065 32.5248 16.9962 32.5248C8.98593 32.5248 2.47142 26.0103 2.47142 18C2.47142 9.98973 8.98593 3.47521 16.9962 3.47521ZM23.4728 25.7787C23.6891 25.9268 23.9321 25.9989 24.1751 25.9989C24.5699 25.9989 24.9533 25.8091 25.1963 25.4636C25.5835 24.9017 25.4431 24.1311 24.8812 23.7439L18.3933 19.2642V9.03685C18.3933 8.35351 17.839 7.79924 17.1557 7.79924C16.4723 7.79924 15.918 8.35351 15.918 9.03685V19.9133C15.918 20.3196 16.1192 20.6992 16.4533 20.9308L23.4728 25.7787Z" fill="black"/>
<path d="M23.4728 25.7787L23.1886 26.1901L23.1904 26.1914L23.4728 25.7787ZM25.1963 25.4636L25.6053 25.7512L25.608 25.7473L25.1963 25.4636ZM24.8812 23.7439L24.5971 24.1553L24.5975 24.1556L24.8812 23.7439ZM18.3933 19.2642H17.8933V19.5266L18.1092 19.6756L18.3933 19.2642ZM16.4533 20.9308L16.1685 21.3417L16.1692 21.3422L16.4533 20.9308ZM0.5 18C0.5 8.88766 7.88415 1.5 16.9962 1.5V0.5C7.33157 0.5 -0.5 8.33566 -0.5 18H0.5ZM17 34.5C7.8878 34.5 0.5 27.1122 0.5 18H-0.5C-0.5 27.6645 7.33551 35.5 17 35.5V34.5ZM33.5 18C33.5 27.1122 26.1122 34.5 17 34.5V35.5C26.6645 35.5 34.5 27.6645 34.5 18H33.5ZM16.9962 1.5C26.1086 1.5 33.5 8.88795 33.5 18H34.5C34.5 8.33537 26.6605 0.5 16.9962 0.5V1.5ZM32.021 18C32.021 9.71359 25.2826 2.97521 16.9962 2.97521V3.97521C24.7303 3.97521 31.021 10.2659 31.021 18H32.021ZM16.9962 33.0248C25.2826 33.0248 32.021 26.2864 32.021 18H31.021C31.021 25.7341 24.7303 32.0248 16.9962 32.0248V33.0248ZM1.97142 18C1.97142 26.2864 8.70979 33.0248 16.9962 33.0248V32.0248C9.26207 32.0248 2.97142 25.7341 2.97142 18H1.97142ZM16.9962 2.97521C8.70979 2.97521 1.97142 9.71359 1.97142 18H2.97142C2.97142 10.2659 9.26207 3.97521 16.9962 3.97521V2.97521ZM24.1751 25.4989C24.0328 25.4989 23.8883 25.4571 23.7551 25.366L23.1904 26.1914C23.49 26.3964 23.8314 26.4989 24.1751 26.4989V25.4989ZM24.7873 25.176C24.639 25.3868 24.4089 25.4989 24.1751 25.4989V26.4989C24.7309 26.4989 25.2676 26.2313 25.6053 25.7512L24.7873 25.176ZM24.5975 24.1556C24.9311 24.3855 25.0157 24.8446 24.7846 25.1799L25.608 25.7473C26.1514 24.9589 25.955 23.8767 25.1649 23.3322L24.5975 24.1556ZM18.1092 19.6756L24.5971 24.1553L25.1653 23.3324L18.6773 18.8527L18.1092 19.6756ZM17.8933 9.03685V19.2642H18.8933V9.03685H17.8933ZM17.1557 8.29924C17.5628 8.29924 17.8933 8.62965 17.8933 9.03685H18.8933C18.8933 8.07737 18.1151 7.29924 17.1557 7.29924V8.29924ZM16.418 9.03685C16.418 8.62965 16.7485 8.29924 17.1557 8.29924V7.29924C16.1962 7.29924 15.418 8.07737 15.418 9.03685H16.418ZM16.418 19.9133V9.03685H15.418V19.9133H16.418ZM16.7382 20.5198C16.5371 20.3805 16.418 20.1535 16.418 19.9133H15.418C15.418 20.4856 15.7014 21.0179 16.1685 21.3417L16.7382 20.5198ZM23.7569 25.3673L16.7375 20.5194L16.1692 21.3422L23.1886 26.1901L23.7569 25.3673Z" fill="#F4F4F4"/>
</svg>
