<svg width="34" height="34" viewBox="0 0 34 34" fill="none" xmlns="http://www.w3.org/2000/svg">
<path d="M0.662789 16.5693H6.36259V33.271C6.36259 33.6371 6.65938 33.9338 7.02536 33.9338H19.971C20.337 33.9338 20.6338 33.6371 20.6338 33.271C20.6338 32.905 20.337 32.6083 19.971 32.6083H7.68813V8.61607C7.68813 8.25002 7.39134 7.9533 7.02536 7.9533C6.65938 7.9533 6.36259 8.25002 6.36259 8.61607V15.2437H1.43796C3.08607 4.67571 2.95 2.94927 5.98555 2.34198L10.7841 1.38229L16.4982 7.09641C16.7571 7.35522 17.1766 7.35522 17.4356 7.09641L23.1497 1.38229L27.9483 2.34198C30.9935 2.95093 30.8485 4.68407 32.4959 15.2437H27.5712V8.61607C27.5712 8.25002 27.2744 7.9533 26.9084 7.9533C26.5424 7.9533 26.2456 8.25002 26.2456 8.61607V32.6083H19.9493C19.5834 32.6083 19.2866 32.905 19.2866 33.271C19.2866 33.6371 19.5834 33.9338 19.9493 33.9338H26.9084C27.2744 33.9338 27.5712 33.6371 27.5712 33.271V16.5693H33.271C33.6781 16.5693 33.9893 16.205 33.9256 15.8028C32.9041 9.35585 32.5669 5.92722 31.7255 3.86131C31.0593 2.22526 30.0402 1.40853 28.2082 1.04222L23.0618 0.0129427C22.8446 -0.0306674 22.6199 0.0374651 22.4632 0.194143L16.9669 5.69048L11.4707 0.194143C11.314 0.0375314 11.0897 -0.0305349 10.8721 0.0129427L5.72561 1.04222C3.89378 1.40867 2.87504 2.2252 2.20923 3.86058C1.36943 5.92364 1.03116 9.34604 0.00817318 15.8028C-0.0221816 15.9943 0.0328944 16.1895 0.158754 16.3369C0.284746 16.4844 0.468863 16.5693 0.662789 16.5693Z" fill="black"/>
<path d="M22.6511 17.3255C23.0171 17.3255 23.3138 17.0288 23.3138 16.6628C23.3138 16.2967 23.0171 16 22.6511 16H20.6628C20.2968 16 20 16.2967 20 16.6628C20 17.0288 20.2968 17.3255 20.6628 17.3255H22.6511Z" fill="black"/>
</svg>
