<svg width="47" height="26" viewBox="0 0 47 26" fill="none" xmlns="http://www.w3.org/2000/svg">
<path fill-rule="evenodd" clip-rule="evenodd" d="M3.01455 22.4865C3.61926 24.5183 5.50148 26 7.72977 26C9.95806 26 11.8403 24.5183 12.445 22.4865H33.9335C34.5382 24.5183 36.4204 26 38.6487 26C40.877 26 42.7592 24.5183 43.3639 22.4865H45.6757C46.0638 22.4865 46.3784 22.1719 46.3784 21.7838V16.8674C46.3784 14.6368 44.7453 12.2237 42.6702 11.3932L39.1183 9.97161L34.4383 2.69164C33.4676 1.18155 31.304 0 29.5079 0H1.40545C1.01735 0 0.702744 0.31461 0.702744 0.7027C0.702744 1.09079 1.01735 1.40541 1.40545 1.40541H1.98849L0.00864029 13.9445L3.8147e-05 14.0541V21.7838C3.8147e-05 22.1719 0.314651 22.4865 0.702744 22.4865H3.01455ZM23.9852 1.40541L24.9073 7.86024C25.1759 9.74071 26.9092 11.2432 28.8104 11.2432H38.5133L42.148 12.698C43.6896 13.315 44.973 15.2113 44.973 16.8674V21.0811H43.5676C43.5676 18.3644 41.3653 16.1622 38.6487 16.1622C35.932 16.1622 33.7298 18.3644 33.7298 21.0811H12.6487C12.6487 18.3644 10.4464 16.1622 7.72977 16.1622C5.01313 16.1622 2.81085 18.3644 2.81085 21.0811H1.40544V14.1092L3.41131 1.40541H23.9852ZM25.4049 1.40541L26.2986 7.66148C26.4683 8.84945 27.6084 9.83784 28.8104 9.83784H37.3616L33.2561 3.45162C32.5439 2.34374 30.8257 1.40541 29.5079 1.40541H25.4049ZM38.6487 24.5946C36.7082 24.5946 35.1352 23.0215 35.1352 21.0811C35.1352 19.1406 36.7082 17.5676 38.6487 17.5676C40.5891 17.5676 42.1622 19.1406 42.1622 21.0811C42.1622 23.0215 40.5891 24.5946 38.6487 24.5946ZM4.21626 21.0811C4.21626 23.0215 5.78931 24.5946 7.72977 24.5946C9.67023 24.5946 11.2433 23.0215 11.2433 21.0811C11.2433 19.1406 9.67023 17.5676 7.72977 17.5676C5.78931 17.5676 4.21626 19.1406 4.21626 21.0811Z" fill="black"/>
</svg>
