<svg width="29" height="34" viewBox="0 0 29 34" fill="none" xmlns="http://www.w3.org/2000/svg">
<path fill-rule="evenodd" clip-rule="evenodd" d="M13.4449 0.295747C13.7083 -0.0985825 14.3614 -0.0985825 14.6248 0.295747C15.6613 1.84817 23.6525 5.65127 27.0675 5.65127C27.4587 5.65127 28.0557 5.96924 28.0557 6.36046V20.5395C28.0557 26.2753 15.0207 33.8067 14.43 33.9735C14.3676 33.9907 13.9546 34 13.8891 34C13.8237 34 13.6195 33.9907 13.5571 33.9735C12.8448 33.7724 0 26.7616 0 19.8303V6.36046C0 5.96924 0.59696 5.65127 0.98818 5.65127C4.03534 5.65127 12.3772 1.89649 13.4449 0.295747ZM14.0294 32.5162C15.8406 31.5716 26.4971 24.8195 26.4971 20.5395V7.02912C21.8211 6.6566 16.2271 3.73258 14.0325 1.73439C11.7834 3.7544 6.2346 6.62231 1.55865 7.02289V19.8303C1.55865 25.3417 12.2603 31.6153 14.0294 32.5162Z" fill="black"/>
</svg>
